# ProBuilder 5.2.3
# https://unity3d.com/unity/features/worldbuilding/probuilder
# 06/02/2025 14:43:55

mtllib ./Tree02_obj.mtl
o Tree02_obj

g Tree02
v -651.2717 31.4 23.02248
v -651.2717 38.88348 23.02249
v -651.0497 31.4 23.5973
v -651.0497 38.88348 23.59729
v -650.5139 31.4 23.8354
v -650.5139 38.88348 23.83541
v -649.9781 31.4 23.5973
v -649.9781 38.88348 23.59729
v -649.7562 31.4 23.02248
v -649.7562 38.88348 23.02249
v -649.9781 31.4 22.44766
v -649.9781 38.88348 22.44769
v -650.5139 31.4 22.20956
v -650.5139 38.88348 22.20958
v -651.0497 31.4 22.44766
v -651.0497 38.88348 22.44769
v -650.5139 31.4 23.02248
v -650.6454 47.89452 23.16351
v -650.5139 47.89452 23.22193
v -650.3824 47.89452 23.16351
v -650.328 47.89452 23.02249
v -650.3824 47.89452 22.88148
v -650.5139 47.89452 23.02249
v -650.5139 47.89452 22.82305
v -650.6454 47.89452 22.88148
v -650.6998 47.89452 23.02249
v -650.5139 38.88348 20.5785
v -648.9031 38.88348 21.29438
v -652.1248 38.88348 21.29438
v -652.792 38.88348 23.02249
v -652.1248 38.88348 24.75061
v -650.5139 38.88348 25.46648
v -648.9031 38.88348 24.75061
v -648.2358 38.88348 23.02249
v -650.5139 43.25539 21.93939
v -649.8 43.25539 22.25668
v -651.2278 43.25539 22.25668
v -651.5235 43.25539 23.02249
v -651.2278 43.25539 23.7883
v -650.5139 43.25539 24.10559
v -649.8 43.25539 23.7883
v -649.5043 43.25539 23.02249
v -650.5139 43.25539 21.21184
v -649.3205 43.25539 21.74225
v -651.7073 43.25539 21.74225
v -652.2017 43.25539 23.02249
v -651.7073 43.25539 24.30273
v -650.5139 43.25539 24.83314
v -649.3205 43.25539 24.30273
v -648.8262 43.25539 23.02249
v -650.5139 45.55019 21.88404
v -649.7635 45.55019 22.21754
v -651.2643 45.55019 22.21754
v -651.5751 45.55019 23.02249
v -651.2643 45.55019 23.82745
v -650.5139 45.55019 24.16095
v -649.7635 45.55019 23.82745
v -649.4527 45.55019 23.02249
v -650.5139 45.55019 21.53184
v -649.5314 45.55019 21.96852
v -651.4964 45.55019 21.96852
v -651.9034 45.55019 23.02249
v -651.4964 45.55019 24.07647
v -650.5139 45.55019 24.51314
v -649.5314 45.55019 24.07647
v -649.1245 45.55019 23.02249

vt 1.043629 5.260319E-08
vt 1.043645 1.308849
vt 1.79763 5.260319E-08
vt 1.797619 1.308849
vt 1.437413 -4.935295E-06
vt 1.437404 1.308844
vt 1.844833 -4.935295E-06
vt 1.844839 1.308844
vt -1.355229 6.490537E-06
vt -1.355239 1.308855
vt -0.9478095 6.490537E-06
vt -0.9477994 1.308855
vt -1.688048 1.306949E-06
vt -1.688037 1.30885
vt -0.9340473 1.306949E-06
vt -0.9340625 1.30885
vt -1.153212 -7.44487E-07
vt -1.153227 1.308848
vt -0.3992118 -7.44487E-07
vt -0.3992528 1.308848
vt -0.6522274 -5.246073E-06
vt -0.6522607 1.308843
vt -0.2448073 -5.246073E-06
vt -0.2448207 1.308843
vt 0.1626241 2.4045E-06
vt 0.1626561 1.308851
vt 0.2896296 5.713262E-07
vt 0.2896705 1.308849
vt -1.907349E-06 1.054916
vt 0.3755646 1.054916
vt 0.109999 1.800849
vt -0.3104165 1.237928
vt 0.3755646 2.109825
vt -0.3755694 1.313742
vt 0.6411302 1.800849
vt -0.4407223 1.237928
vt 0.7511311 1.054916
vt -0.4677141 1.054932
vt 0.6411302 0.3089833
vt 0.3755646 7.629395E-06
vt -0.4407223 0.8719357
vt -0.3755694 1.054932
vt -0.3755694 0.7961209
vt 0.109999 0.3089831
vt -0.3104165 0.8719357
vt -0.2834248 1.054932
vt 0.6411336 0.3090244
vt 0.375562 -2.11659
vt 1.173979 -1.18761
vt 0.109998 0.3090244
vt -0.4228326 -1.18761
vt -0.753535 1.054932
vt -0.4228325 3.297473
vt 0.3755622 4.226453
vt 1.173979 3.297473
vt 1.504681 1.054932
vt 0.2534674 -1.491628
vt -0.4595755 -0.4956144
vt 0.5974845 0.4018064
vt 0.2814957 0.8432495
vt -0.211244 -0.617521
vt -0.9242694 -1.613529
vt -0.9523126 0.7213445
vt -1.268296 0.2799031
vt 1.153578 0.6420354
vt -1.113217 0.6420355
vt 1.061853 1.627715
vt 0.05732559 1.62772
vt 3.200506 0.4477858
vt 0.9337116 0.4477858
vt 2.029964 1.43347
vt 1.025437 1.433465
vt -0.924282 3.581388
vt -0.2112612 2.585377
vt -1.268317 1.687958
vt -0.9523358 1.246515
vt -0.459598 2.463507
vt 0.2534497 3.459517
vt 0.2814668 1.124639
vt 0.5974578 1.566081
vt -0.8241269 -0.02114728
vt -3.090922 -0.02114727
vt -0.9158533 0.9645363
vt -1.920379 0.9645374
vt 1.003632 0.1730906
vt -1.263163 0.1730905
vt -0.1669103 1.158775
vt -1.171436 1.158774
vt 0.3755694 -0.3505873
vt 0.7293921 0.06115358
vt 0.3755694 -1.294715
vt 0.9670734 -0.6064144
vt 0.02175404 0.06115358
vt -0.2159199 -0.6064144
vt -0.1248052 1.054932
vt -0.4609353 1.054932
vt 0.02175404 2.04871
vt -0.2159199 2.716278
vt 0.3755694 2.460451
vt 0.3755694 3.404578
vt 0.7293921 2.04871
vt 0.9670734 2.716278
vt 0.8759441 1.054932
vt 1.212074 1.054932
vt 0.6476212 -0.4460195
vt 0.1261572 0.296752
vt 0.837068 0.4953033
vt 0.5091896 0.9623321
vt -0.7883887 0.1634726
vt -1.309837 -0.5792986
vt -1.171418 0.8290524
vt -1.499287 0.3620234
vt 1.110894 1.462905
vt -0.5684221 1.462905
vt 1.065587 1.968341
vt 0.009710607 1.968346
vt 2.655708 1.275781
vt 0.9763916 1.275781
vt 2.077575 1.781221
vt 1.021699 1.781217
vt -1.309835 2.534438
vt -0.7883866 1.791667
vt -1.499285 1.593115
vt -1.171415 1.126087
vt 0.1261571 1.658385
vt 0.6476212 2.401156
vt 0.5091896 0.9928043
vt 0.837068 1.459833
vt -0.8668106 0.8241372
vt -2.546125 0.8241372
vt -0.9121154 1.329574
vt -1.967991 1.329579
vt 0.4588364 1.011201
vt -1.220478 1.011201
vt -0.1192979 1.516643
vt -1.175173 1.516638
vt 0.3755679 -0.4224226
vt 0.747485 0.01035666
vt 0.3755679 -0.8794534
vt 0.862538 -0.3127934
vt 0.003661174 0.01035666
vt -0.1113918 -0.3127934
vt -0.1503982 1.054932
vt -0.3131087 1.054932
vt 0.003663298 2.099508
vt -0.1113897 2.422657
vt 0.3755709 2.532286
vt 0.3755709 2.989317
vt 0.747485 2.099507
vt 0.862538 2.422657
vt 0.901537 1.054931
vt 1.064248 1.054931
vt 0.3165563 -0.2872166
vt -0.1517963 0.2949254
vt 0.4288455 1.434138
vt 0.3661835 1.512024
vt -0.5706426 0.2477984
vt -1.038988 -0.3343436
vt -1.088616 1.464897
vt -1.151278 1.387011
vt -1.143804 1.235828
vt -1.310042 -0.1366631
vt -1.867664 1.235828
vt -1.889908 1.052194
vt -1.310038 2.239203
vt -1.1438 0.866712
vt -1.889904 1.050346
vt -1.86766 0.8667119
vt -1.038987 2.388096
vt -0.5706422 1.805954
vt -1.151278 0.6667417
vt -1.088616 0.5888556
vt -0.1517962 1.758827
vt 0.3165565 2.340969
vt 0.3661836 0.5417281
vt 0.4288456 0.6196142
vt 0.5247863 0.8312988
vt 0.691018 2.203789
vt 1.248646 0.8312988
vt 1.27089 1.014932
vt 0.6910109 -0.1012502
vt 0.5247788 1.27124
vt 1.270883 1.087607
vt 1.248639 1.27124

vn -2.017599 8.794532E-06 -2.379455E-07
vn -1.83544 1.344179E-05 0.3199809
vn -1.835748E-05 -2.208254E-05 0.7706053
vn 1.835445 -5.449649E-06 0.3199767
vn 2.017599 -1.581431E-06 2.205349E-07
vn 1.83544 5.961334E-05 -0.3199809
vn 1.171553E-05 0.000102135 -0.7706053
vn -1.835448 5.31306E-05 -0.3199743
vn 0 -5.717604 0
vn 0 5.717604 0
vn 0.8466557 4.762569 -0.2779248
vn -0.8466507 4.762606 -0.2779156
vn -0.8467634 4.762447 -0.277915
vn -1.548407 3.608038 -0.08721258
vn -1.548398 3.608069 0.08721209
vn -0.8466692 4.76256 0.2779216
vn 0.8466364 4.762618 0.2779185
vn 0.8467546 4.76245 0.2779179
vn 1.5484 3.608063 0.08721219
vn 1.548398 3.608069 -0.0872121
vn 0.8824987 4.670932 -0.2896616
vn -0.8825179 4.670906 -0.2896607
vn -1.584991 3.475232 -0.08928066
vn -1.584978 3.475284 0.08927988
vn -0.8825163 4.67091 0.2896602
vn 0.8824986 4.670932 0.2896616
vn 1.584993 3.475235 0.08927538
vn 1.584975 3.4753 -0.08927441
vn 0.5378497 5.352769 -0.1765378
vn -0.5378575 5.352763 -0.1765377
vn -1.138874 4.695553 -0.06415348
vn -1.13887 4.69556 0.06415328
vn -0.5378573 5.352764 0.1765376
vn 0.5378498 5.352769 0.1765378
vn 1.138874 4.695555 0.06415118
vn 1.138869 4.695564 -0.06415092

usemtl Lit
f 1/29/9 17/30/9 3/31/9
f 3/31/9 17/30/9 5/33/9
f 5/33/9 17/30/9 7/35/9
f 7/35/9 17/30/9 9/37/9
f 9/37/9 17/30/9 11/39/9
f 11/39/9 17/30/9 13/40/9
f 13/40/9 17/30/9 15/44/9
f 15/44/9 17/30/9 1/29/9
f 24/43/10 23/42/10 22/41/10
f 25/45/10 23/42/10 24/43/10
f 26/46/10 23/42/10 25/45/10
f 18/32/10 23/42/10 26/46/10
f 19/34/10 23/42/10 18/32/10
f 20/36/10 23/42/10 19/34/10
f 21/38/10 23/42/10 20/36/10
f 22/41/10 23/42/10 21/38/10

usemtl Wood
f 3/3/2 4/4/2 2/2/1 1/1/1
f 5/7/3 6/8/3 4/6/2 3/5/2
f 7/11/4 8/12/4 6/10/3 5/9/3
f 9/15/5 10/16/5 8/14/4 7/13/4
f 11/19/6 12/20/6 10/18/5 9/17/5
f 13/23/7 14/24/7 12/22/6 11/21/6
f 15/25/8 16/26/8 14/24/7 13/23/7
f 1/1/1 2/2/1 16/28/8 15/27/8

usemtl New_Material
f 27/48/9 28/49/9 12/47/9 14/40/9
f 29/51/9 27/48/9 14/40/9 16/50/9
f 30/52/9 29/51/9 16/50/9 2/29/9
f 31/53/9 30/52/9 2/29/9 4/31/9
f 32/54/9 31/53/9 4/31/9 6/33/9
f 33/55/9 32/54/9 6/33/9 8/35/9
f 34/56/9 33/55/9 8/35/9 10/37/9
f 28/49/9 34/56/9 10/37/9 12/47/9
f 35/59/11 36/60/11 28/58/11 27/57/11
f 37/63/12 35/64/13 27/62/12 29/61/12
f 38/67/14 37/68/14 29/66/14 30/65/14
f 39/71/15 38/72/15 30/70/15 31/69/15
f 40/75/16 39/76/16 31/74/16 32/73/16
f 41/79/17 40/80/18 32/78/17 33/77/17
f 42/83/19 41/84/19 33/82/19 34/81/19
f 36/87/20 42/88/20 34/86/20 28/85/20
f 43/91/9 44/92/9 36/90/9 35/89/9
f 45/94/9 43/91/9 35/89/9 37/93/9
f 46/96/9 45/94/9 37/93/9 38/95/9
f 47/98/9 46/96/9 38/95/9 39/97/9
f 48/100/9 47/98/9 39/97/9 40/99/9
f 49/102/9 48/100/9 40/99/9 41/101/9
f 50/104/9 49/102/9 41/101/9 42/103/9
f 44/92/9 50/104/9 42/103/9 36/90/9
f 51/107/21 52/108/21 44/106/21 43/105/21
f 53/111/22 51/112/22 43/110/22 45/109/22
f 54/115/23 53/116/23 45/114/23 46/113/23
f 55/119/24 54/120/24 46/118/24 47/117/24
f 56/123/25 55/124/25 47/122/25 48/121/25
f 57/127/26 56/128/26 48/126/26 49/125/26
f 58/131/27 57/132/27 49/130/27 50/129/27
f 52/135/28 58/136/28 50/134/28 44/133/28
f 59/139/9 60/140/9 52/138/9 51/137/9
f 61/142/9 59/139/9 51/137/9 53/141/9
f 62/144/9 61/142/9 53/141/9 54/143/9
f 63/146/9 62/144/9 54/143/9 55/145/9
f 64/148/9 63/146/9 55/145/9 56/147/9
f 65/150/9 64/148/9 56/147/9 57/149/9
f 66/152/9 65/150/9 57/149/9 58/151/9
f 60/140/9 66/152/9 58/151/9 52/138/9
f 24/155/29 22/156/29 60/154/29 59/153/29
f 25/159/30 24/160/30 59/158/30 61/157/30
f 26/163/31 25/164/31 61/162/31 62/161/31
f 18/167/32 26/168/32 62/166/32 63/165/32
f 19/171/33 18/172/33 63/170/33 64/169/33
f 20/175/34 19/176/34 64/174/34 65/173/34
f 21/179/35 20/180/35 65/178/35 66/177/35
f 22/183/36 21/184/36 66/182/36 60/181/36

